<svg class="diagram-root" style="background: #f5f6f6" xmlns="http://www.w3.org/2000/svg" xmlns:xlink="http://www.w3.org/1999/xlink"><style>.diagram-root { font-family: "Helvetica Neue", sans-serif; font-size: 12px; } .t { overflow: visible; } .t-bg { y: 40; fill: #fff;   } .th { fill: #005aa0;   } .tht { fill: #fff; font-size: 14px;  } .tf { fill: #323c46; overflow: visible; } .tf.pk { fill: #005aa0; font-weight: bold; } .tf.fk { font-weight: bold; } .ty { fill: #adb1b5; font-weight: normal; text-anchor: end; } .r { fill: transparent; stroke: #c3c3c3; stroke-width: 1; } .l { stroke: 1; } .i { fill: #c2c7ce; stroke: #c2c7ce; } .i.ix { fill: #afb3b6; stroke: #000; } .fa { fill: transparent; overflow: visible; } .fa .bg.hover { fill: #f7f7f7; } .c { cy: 12; r: 4; stroke: #d2d2dc; fill: #d2d2dc; } .hr { fill: transparent; stroke: #323c46; stroke-opacity: 0.035; stroke-width: 13; } .dc { stroke: #fa5a3c; fill: #fa5a3c; } .x { stroke: white; stroke-width: 1; } .hl .th { fill: #1b9bff; } .hl .tht {  } .fhl .bg { fill: #e7f4ff; } .fhls .bg {  } .r.hl { stroke: #1b9bff; } .dim { opacity: 0.25; }</style><g class="drawing-wrapper" transform="translate(702.6623809523802, 644.1919047619041) scale(1,1)"><g class="rs"><path d="M -499.5 125.86000000000001 m -1, 0 a 1,1 0 1,0 2,0 a 1,1 0 1,0 -2,0 M -499.5 125.86000000000001 m -0.5, 0 a 0.5,0.5 0 1,0 1,0 a 0.5,0.5 0 1,0 -1,0  M-499.5 125.86000000000001 L-499.5 125.86000000000001 -487.5 125.86000000000001 M-493.5 131.86 L-493.5 131.86 -493.5 119.86000000000001 M-487.5 125.86000000000001 Q -402.56 125.86000000000001, -317.63 -65.67 T -147.76 -257.19000000000005 M -135.76 -257.19000000000005 m -1, 0 a 1,1 0 1,0 2,0 a 1,1 0 1,0 -2,0 M -135.76 -257.19000000000005 m -0.5, 0 a 0.5,0.5 0 1,0 1,0 a 0.5,0.5 0 1,0 -1,0  M-135.76 -257.19000000000005 L-135.76 -257.19000000000005 -147.76 -257.19000000000005 M-141.76 -251.19000000000005 L-141.76 -251.19000000000005 -141.76 -263.19000000000005" id="h147462337" class="r"></path><path d="M -680.66 125.86000000000001 m -1, 0 a 1,1 0 1,0 2,0 a 1,1 0 1,0 -2,0 M -680.66 125.86000000000001 m -0.5, 0 a 0.5,0.5 0 1,0 1,0 a 0.5,0.5 0 1,0 -1,0  M-680.66 125.86000000000001 L-680.66 125.86000000000001 -692.66 125.86000000000001 M-686.66 131.86 L-686.66 131.86 -686.66 119.86000000000001 M-692.66 125.86000000000001 C -742.66 125.86000000000001, -833.8 671.52, -540.76 671.52 M -528.76 671.52 m -1, 0 a 1,1 0 1,0 2,0 a 1,1 0 1,0 -2,0 M -528.76 671.52 m -0.5, 0 a 0.5,0.5 0 1,0 1,0 a 0.5,0.5 0 1,0 -1,0  M-528.76 671.52 L-528.76 671.52 -540.76 671.52 M-534.76 677.52 L-534.76 677.52 -534.76 665.52" id="h1069079586" class="r"></path><path d="M -499.5 125.86000000000001 m -1, 0 a 1,1 0 1,0 2,0 a 1,1 0 1,0 -2,0 M -499.5 125.86000000000001 m -0.5, 0 a 0.5,0.5 0 1,0 1,0 a 0.5,0.5 0 1,0 -1,0  M-499.5 125.86000000000001 L-499.5 125.86000000000001 -487.5 125.86000000000001 M-493.5 131.86 L-493.5 131.86 -493.5 119.86000000000001 M-487.5 125.86000000000001 Q -314.62 125.86000000000001, -141.75 403.27 T 204 680.6700000000001 M 216 680.6700000000001 m -1, 0 a 1,1 0 1,0 2,0 a 1,1 0 1,0 -2,0 M 216 680.6700000000001 m -0.5, 0 a 0.5,0.5 0 1,0 1,0 a 0.5,0.5 0 1,0 -1,0  M216 680.6700000000001 L216 680.6700000000001 204 680.6700000000001 M210 686.6700000000001 L210 686.6700000000001 210 674.6700000000001" id="h306959074" class="r"></path><path d="M -499.5 125.86000000000001 m -1, 0 a 1,1 0 1,0 2,0 a 1,1 0 1,0 -2,0 M -499.5 125.86000000000001 m -0.5, 0 a 0.5,0.5 0 1,0 1,0 a 0.5,0.5 0 1,0 -1,0  M-499.5 125.86000000000001 L-499.5 125.86000000000001 -487.5 125.86000000000001 M-493.5 131.86 L-493.5 131.86 -493.5 119.86000000000001 M-487.5 125.86000000000001 Q -274.37 125.86000000000001, -61.25 103.6 T 365 81.33000000000001 M 377 81.33000000000001 m -1, 0 a 1,1 0 1,0 2,0 a 1,1 0 1,0 -2,0 M 377 81.33000000000001 m -0.5, 0 a 0.5,0.5 0 1,0 1,0 a 0.5,0.5 0 1,0 -1,0  M377 81.33000000000001 L377 81.33000000000001 365 81.33000000000001 M371 87.33000000000001 L371 87.33000000000001 371 75.33000000000001" id="h3351746919" class="r"></path><path d="M -135.76 -257.19000000000005 m -1, 0 a 1,1 0 1,0 2,0 a 1,1 0 1,0 -2,0 M -135.76 -257.19000000000005 m -0.5, 0 a 0.5,0.5 0 1,0 1,0 a 0.5,0.5 0 1,0 -1,0  M-135.76 -257.19000000000005 L-135.76 -257.19000000000005 -147.76 -257.19000000000005 M-141.76 -251.19000000000005 L-141.76 -251.19000000000005 -141.76 -263.19000000000005 M-147.76 -257.19000000000005 Q -194.72 -257.19000000000005, -241.68 207.16 T -335.6 671.52 M -347.6 671.52 m -1, 0 a 1,1 0 1,0 2,0 a 1,1 0 1,0 -2,0 M -347.6 671.52 m -0.5, 0 a 0.5,0.5 0 1,0 1,0 a 0.5,0.5 0 1,0 -1,0  M-347.6 671.52 L-347.6 671.52 -335.6 671.52 M-341.6 677.52 L-341.6 677.52 -341.6 665.52" id="h3664987152" class="r"></path><path d="M 59.88 -257.19000000000005 m -1, 0 a 1,1 0 1,0 2,0 a 1,1 0 1,0 -2,0 M 59.88 -257.19000000000005 m -0.5, 0 a 0.5,0.5 0 1,0 1,0 a 0.5,0.5 0 1,0 -1,0  M59.88 -257.19000000000005 L59.88 -257.19000000000005 71.88 -257.19000000000005 M65.88 -251.19000000000005 L65.88 -251.19000000000005 65.88 -263.19000000000005 M71.88 -257.19000000000005 Q 104.91 -257.19000000000005, 137.94 211.74 T 204 680.6700000000001 M 216 680.6700000000001 m -1, 0 a 1,1 0 1,0 2,0 a 1,1 0 1,0 -2,0 M 216 680.6700000000001 m -0.5, 0 a 0.5,0.5 0 1,0 1,0 a 0.5,0.5 0 1,0 -1,0  M216 680.6700000000001 L216 680.6700000000001 204 680.6700000000001 M210 686.6700000000001 L210 686.6700000000001 210 674.6700000000001" id="h831445459" class="r"></path><path d="M 59.88 -257.19000000000005 m -1, 0 a 1,1 0 1,0 2,0 a 1,1 0 1,0 -2,0 M 59.88 -257.19000000000005 m -0.5, 0 a 0.5,0.5 0 1,0 1,0 a 0.5,0.5 0 1,0 -1,0  M59.88 -257.19000000000005 L59.88 -257.19000000000005 71.88 -257.19000000000005 M65.88 -251.19000000000005 L65.88 -251.19000000000005 65.88 -263.19000000000005 M71.88 -257.19000000000005 Q 145.16 -257.19000000000005, 218.44 -87.93 T 365 81.33000000000001 M 377 81.33000000000001 m -1, 0 a 1,1 0 1,0 2,0 a 1,1 0 1,0 -2,0 M 377 81.33000000000001 m -0.5, 0 a 0.5,0.5 0 1,0 1,0 a 0.5,0.5 0 1,0 -1,0  M377 81.33000000000001 L377 81.33000000000001 365 81.33000000000001 M371 87.33000000000001 L371 87.33000000000001 371 75.33000000000001" id="h3794358825" class="r"></path><path d="M -135.76 -557.19 m -1, 0 a 1,1 0 1,0 2,0 a 1,1 0 1,0 -2,0 M -135.76 -557.19 m -0.5, 0 a 0.5,0.5 0 1,0 1,0 a 0.5,0.5 0 1,0 -1,0  M-135.76 -557.19 L-135.76 -557.19 -147.76 -557.19 M -135.76 -551.19 m -1, 0 a 1,1 0 1,0 2,0 a 1,1 0 1,0 -2,0 M -135.76 -551.19 m -0.5, 0 a 0.5,0.5 0 1,0 1,0 a 0.5,0.5 0 1,0 -1,0  M-135.76 -551.19 L-135.76 -551.19 -142.76 -557.19 -135.76 -563.19 M -135.76 -563.19 m -1, 0 a 1,1 0 1,0 2,0 a 1,1 0 1,0 -2,0 M -135.76 -563.19 m -0.5, 0 a 0.5,0.5 0 1,0 1,0 a 0.5,0.5 0 1,0 -1,0  M-147.76 -557.19 Q -232.69 -557.19, -317.63 -365.66 T -487.5 -174.14 M -499.5 -174.14 m -1, 0 a 1,1 0 1,0 2,0 a 1,1 0 1,0 -2,0 M -499.5 -174.14 m -0.5, 0 a 0.5,0.5 0 1,0 1,0 a 0.5,0.5 0 1,0 -1,0  M-499.5 -174.14 L-499.5 -174.14 -487.5 -174.14 M -499.5 -168.14 m -1, 0 a 1,1 0 1,0 2,0 a 1,1 0 1,0 -2,0 M -499.5 -168.14 m -0.5, 0 a 0.5,0.5 0 1,0 1,0 a 0.5,0.5 0 1,0 -1,0  M-499.5 -168.14 L-499.5 -168.14 -492.5 -174.14 -499.5 -180.14 M -499.5 -180.14 m -1, 0 a 1,1 0 1,0 2,0 a 1,1 0 1,0 -2,0 M -499.5 -180.14 m -0.5, 0 a 0.5,0.5 0 1,0 1,0 a 0.5,0.5 0 1,0 -1,0 " id="h293986188" class="r"></path><path d="M -135.76 -532.19 m -1, 0 a 1,1 0 1,0 2,0 a 1,1 0 1,0 -2,0 M -135.76 -532.19 m -0.5, 0 a 0.5,0.5 0 1,0 1,0 a 0.5,0.5 0 1,0 -1,0  M-135.76 -532.19 L-135.76 -532.19 -147.76 -532.19 M -135.76 -526.19 m -1, 0 a 1,1 0 1,0 2,0 a 1,1 0 1,0 -2,0 M -135.76 -526.19 m -0.5, 0 a 0.5,0.5 0 1,0 1,0 a 0.5,0.5 0 1,0 -1,0  M-135.76 -526.19 L-135.76 -526.19 -142.76 -532.19 -135.76 -538.19 M -135.76 -538.19 m -1, 0 a 1,1 0 1,0 2,0 a 1,1 0 1,0 -2,0 M -135.76 -538.19 m -0.5, 0 a 0.5,0.5 0 1,0 1,0 a 0.5,0.5 0 1,0 -1,0  M-147.76 -532.19 Q -232.69 -532.19, -317.63 -340.66 T -487.5 -149.14 M -499.5 -149.14 m -1, 0 a 1,1 0 1,0 2,0 a 1,1 0 1,0 -2,0 M -499.5 -149.14 m -0.5, 0 a 0.5,0.5 0 1,0 1,0 a 0.5,0.5 0 1,0 -1,0  M-499.5 -149.14 L-499.5 -149.14 -487.5 -149.14 M -499.5 -143.14 m -1, 0 a 1,1 0 1,0 2,0 a 1,1 0 1,0 -2,0 M -499.5 -143.14 m -0.5, 0 a 0.5,0.5 0 1,0 1,0 a 0.5,0.5 0 1,0 -1,0  M-499.5 -143.14 L-499.5 -143.14 -492.5 -149.14 -499.5 -155.14 M -499.5 -155.14 m -1, 0 a 1,1 0 1,0 2,0 a 1,1 0 1,0 -2,0 M -499.5 -155.14 m -0.5, 0 a 0.5,0.5 0 1,0 1,0 a 0.5,0.5 0 1,0 -1,0 " id="h4063082447" class="r"></path><path d="M -135.76 -382.19000000000005 m -1, 0 a 1,1 0 1,0 2,0 a 1,1 0 1,0 -2,0 M -135.76 -382.19000000000005 m -0.5, 0 a 0.5,0.5 0 1,0 1,0 a 0.5,0.5 0 1,0 -1,0  M-135.76 -382.19000000000005 L-135.76 -382.19000000000005 -147.76 -382.19000000000005 M -135.76 -376.19000000000005 m -1, 0 a 1,1 0 1,0 2,0 a 1,1 0 1,0 -2,0 M -135.76 -376.19000000000005 m -0.5, 0 a 0.5,0.5 0 1,0 1,0 a 0.5,0.5 0 1,0 -1,0  M-135.76 -376.19000000000005 L-135.76 -376.19000000000005 -142.76 -382.19000000000005 -135.76 -388.19000000000005 M -135.76 -388.19000000000005 m -1, 0 a 1,1 0 1,0 2,0 a 1,1 0 1,0 -2,0 M -135.76 -388.19000000000005 m -0.5, 0 a 0.5,0.5 0 1,0 1,0 a 0.5,0.5 0 1,0 -1,0  M-147.76 -382.19000000000005 Q -232.69 -382.19000000000005, -317.63 -190.67 T -487.5 0.8600000000000136 M -499.5 0.8600000000000136 m -1, 0 a 1,1 0 1,0 2,0 a 1,1 0 1,0 -2,0 M -499.5 0.8600000000000136 m -0.5, 0 a 0.5,0.5 0 1,0 1,0 a 0.5,0.5 0 1,0 -1,0  M-499.5 0.8600000000000136 L-499.5 0.8600000000000136 -487.5 0.8600000000000136 M -499.5 6.860000000000014 m -1, 0 a 1,1 0 1,0 2,0 a 1,1 0 1,0 -2,0 M -499.5 6.860000000000014 m -0.5, 0 a 0.5,0.5 0 1,0 1,0 a 0.5,0.5 0 1,0 -1,0  M-499.5 6.860000000000014 L-499.5 6.860000000000014 -492.5 0.8600000000000136 -499.5 -5.139999999999986 M -499.5 -5.139999999999986 m -1, 0 a 1,1 0 1,0 2,0 a 1,1 0 1,0 -2,0 M -499.5 -5.139999999999986 m -0.5, 0 a 0.5,0.5 0 1,0 1,0 a 0.5,0.5 0 1,0 -1,0 " id="h3415473978" class="r"></path><path d="M -347.6 671.52 m -1, 0 a 1,1 0 1,0 2,0 a 1,1 0 1,0 -2,0 M -347.6 671.52 m -0.5, 0 a 0.5,0.5 0 1,0 1,0 a 0.5,0.5 0 1,0 -1,0  M-347.6 671.52 L-347.6 671.52 -335.6 671.52 M-341.6 677.52 L-341.6 677.52 -341.6 665.52 M-335.6 671.52 Q -200.7 671.52, -65.8 676.1 T 204 680.6700000000001 M 216 680.6700000000001 m -1, 0 a 1,1 0 1,0 2,0 a 1,1 0 1,0 -2,0 M 216 680.6700000000001 m -0.5, 0 a 0.5,0.5 0 1,0 1,0 a 0.5,0.5 0 1,0 -1,0  M216 680.6700000000001 L216 680.6700000000001 204 680.6700000000001 M210 686.6700000000001 L210 686.6700000000001 210 674.6700000000001" id="h1371219325" class="r"></path><path d="M -347.6 671.52 m -1, 0 a 1,1 0 1,0 2,0 a 1,1 0 1,0 -2,0 M -347.6 671.52 m -0.5, 0 a 0.5,0.5 0 1,0 1,0 a 0.5,0.5 0 1,0 -1,0  M-347.6 671.52 L-347.6 671.52 -335.6 671.52 M-341.6 677.52 L-341.6 677.52 -341.6 665.52 M-335.6 671.52 Q -160.45 671.52, 14.7 376.43 T 365 81.33000000000001 M 377 81.33000000000001 m -1, 0 a 1,1 0 1,0 2,0 a 1,1 0 1,0 -2,0 M 377 81.33000000000001 m -0.5, 0 a 0.5,0.5 0 1,0 1,0 a 0.5,0.5 0 1,0 -1,0  M377 81.33000000000001 L377 81.33000000000001 365 81.33000000000001 M371 87.33000000000001 L371 87.33000000000001 371 75.33000000000001" id="h364568436" class="r"></path><path d="M -528.76 396.52 m -1, 0 a 1,1 0 1,0 2,0 a 1,1 0 1,0 -2,0 M -528.76 396.52 m -0.5, 0 a 0.5,0.5 0 1,0 1,0 a 0.5,0.5 0 1,0 -1,0  M-528.76 396.52 L-528.76 396.52 -540.76 396.52 M -528.76 402.52 m -1, 0 a 1,1 0 1,0 2,0 a 1,1 0 1,0 -2,0 M -528.76 402.52 m -0.5, 0 a 0.5,0.5 0 1,0 1,0 a 0.5,0.5 0 1,0 -1,0  M-528.76 402.52 L-528.76 402.52 -535.76 396.52 -528.76 390.52 M -528.76 390.52 m -1, 0 a 1,1 0 1,0 2,0 a 1,1 0 1,0 -2,0 M -528.76 390.52 m -0.5, 0 a 0.5,0.5 0 1,0 1,0 a 0.5,0.5 0 1,0 -1,0  M-540.76 396.52 C -833.8 396.52, -742.66 -174.14, -692.66 -174.14 M -680.66 -174.14 m -1, 0 a 1,1 0 1,0 2,0 a 1,1 0 1,0 -2,0 M -680.66 -174.14 m -0.5, 0 a 0.5,0.5 0 1,0 1,0 a 0.5,0.5 0 1,0 -1,0  M-680.66 -174.14 L-680.66 -174.14 -692.66 -174.14 M -680.66 -168.14 m -1, 0 a 1,1 0 1,0 2,0 a 1,1 0 1,0 -2,0 M -680.66 -168.14 m -0.5, 0 a 0.5,0.5 0 1,0 1,0 a 0.5,0.5 0 1,0 -1,0  M-680.66 -168.14 L-680.66 -168.14 -687.66 -174.14 -680.66 -180.14 M -680.66 -180.14 m -1, 0 a 1,1 0 1,0 2,0 a 1,1 0 1,0 -2,0 M -680.66 -180.14 m -0.5, 0 a 0.5,0.5 0 1,0 1,0 a 0.5,0.5 0 1,0 -1,0 " id="h3907722328" class="r"></path><path d="M -528.76 421.52 m -1, 0 a 1,1 0 1,0 2,0 a 1,1 0 1,0 -2,0 M -528.76 421.52 m -0.5, 0 a 0.5,0.5 0 1,0 1,0 a 0.5,0.5 0 1,0 -1,0  M-528.76 421.52 L-528.76 421.52 -540.76 421.52 M -528.76 427.52 m -1, 0 a 1,1 0 1,0 2,0 a 1,1 0 1,0 -2,0 M -528.76 427.52 m -0.5, 0 a 0.5,0.5 0 1,0 1,0 a 0.5,0.5 0 1,0 -1,0  M-528.76 427.52 L-528.76 427.52 -535.76 421.52 -528.76 415.52 M -528.76 415.52 m -1, 0 a 1,1 0 1,0 2,0 a 1,1 0 1,0 -2,0 M -528.76 415.52 m -0.5, 0 a 0.5,0.5 0 1,0 1,0 a 0.5,0.5 0 1,0 -1,0  M-540.76 421.52 C -833.8 421.52, -742.66 -149.14, -692.66 -149.14 M -680.66 -149.14 m -1, 0 a 1,1 0 1,0 2,0 a 1,1 0 1,0 -2,0 M -680.66 -149.14 m -0.5, 0 a 0.5,0.5 0 1,0 1,0 a 0.5,0.5 0 1,0 -1,0  M-680.66 -149.14 L-680.66 -149.14 -692.66 -149.14 M -680.66 -143.14 m -1, 0 a 1,1 0 1,0 2,0 a 1,1 0 1,0 -2,0 M -680.66 -143.14 m -0.5, 0 a 0.5,0.5 0 1,0 1,0 a 0.5,0.5 0 1,0 -1,0  M-680.66 -143.14 L-680.66 -143.14 -687.66 -149.14 -680.66 -155.14 M -680.66 -155.14 m -1, 0 a 1,1 0 1,0 2,0 a 1,1 0 1,0 -2,0 M -680.66 -155.14 m -0.5, 0 a 0.5,0.5 0 1,0 1,0 a 0.5,0.5 0 1,0 -1,0 " id="h4005599592" class="r"></path><path d="M -528.76 571.52 m -1, 0 a 1,1 0 1,0 2,0 a 1,1 0 1,0 -2,0 M -528.76 571.52 m -0.5, 0 a 0.5,0.5 0 1,0 1,0 a 0.5,0.5 0 1,0 -1,0  M-528.76 571.52 L-528.76 571.52 -540.76 571.52 M -528.76 577.52 m -1, 0 a 1,1 0 1,0 2,0 a 1,1 0 1,0 -2,0 M -528.76 577.52 m -0.5, 0 a 0.5,0.5 0 1,0 1,0 a 0.5,0.5 0 1,0 -1,0  M-528.76 577.52 L-528.76 577.52 -535.76 571.52 -528.76 565.52 M -528.76 565.52 m -1, 0 a 1,1 0 1,0 2,0 a 1,1 0 1,0 -2,0 M -528.76 565.52 m -0.5, 0 a 0.5,0.5 0 1,0 1,0 a 0.5,0.5 0 1,0 -1,0  M-540.76 571.52 C -833.8 571.52, -742.66 0.8600000000000136, -692.66 0.8600000000000136 M -680.66 0.8600000000000136 m -1, 0 a 1,1 0 1,0 2,0 a 1,1 0 1,0 -2,0 M -680.66 0.8600000000000136 m -0.5, 0 a 0.5,0.5 0 1,0 1,0 a 0.5,0.5 0 1,0 -1,0  M-680.66 0.8600000000000136 L-680.66 0.8600000000000136 -692.66 0.8600000000000136 M -680.66 6.860000000000014 m -1, 0 a 1,1 0 1,0 2,0 a 1,1 0 1,0 -2,0 M -680.66 6.860000000000014 m -0.5, 0 a 0.5,0.5 0 1,0 1,0 a 0.5,0.5 0 1,0 -1,0  M-680.66 6.860000000000014 L-680.66 6.860000000000014 -687.66 0.8600000000000136 -680.66 -5.139999999999986 M -680.66 -5.139999999999986 m -1, 0 a 1,1 0 1,0 2,0 a 1,1 0 1,0 -2,0 M -680.66 -5.139999999999986 m -0.5, 0 a 0.5,0.5 0 1,0 1,0 a 0.5,0.5 0 1,0 -1,0 " id="h2400984712" class="r"></path><path d="M 397.16 680.6700000000001 m -1, 0 a 1,1 0 1,0 2,0 a 1,1 0 1,0 -2,0 M 397.16 680.6700000000001 m -0.5, 0 a 0.5,0.5 0 1,0 1,0 a 0.5,0.5 0 1,0 -1,0  M397.16 680.6700000000001 L397.16 680.6700000000001 409.16 680.6700000000001 M403.16 686.6700000000001 L403.16 686.6700000000001 403.16 674.6700000000001 M409.16 680.6700000000001 C 696.376 680.6700000000001, 607.42 81.33000000000001, 557.42 81.33000000000001 M 545.42 81.33000000000001 m -1, 0 a 1,1 0 1,0 2,0 a 1,1 0 1,0 -2,0 M 545.42 81.33000000000001 m -0.5, 0 a 0.5,0.5 0 1,0 1,0 a 0.5,0.5 0 1,0 -1,0  M545.42 81.33000000000001 L545.42 81.33000000000001 557.42 81.33000000000001 M551.42 87.33000000000001 L551.42 87.33000000000001 551.42 75.33000000000001" id="h3002658245" class="r"></path><path d="M 216 405.67 m -1, 0 a 1,1 0 1,0 2,0 a 1,1 0 1,0 -2,0 M 216 405.67 m -0.5, 0 a 0.5,0.5 0 1,0 1,0 a 0.5,0.5 0 1,0 -1,0  M216 405.67 L216 405.67 204 405.67 M 216 411.67 m -1, 0 a 1,1 0 1,0 2,0 a 1,1 0 1,0 -2,0 M 216 411.67 m -0.5, 0 a 0.5,0.5 0 1,0 1,0 a 0.5,0.5 0 1,0 -1,0  M216 411.67 L216 411.67 209 405.67 216 399.67 M 216 399.67 m -1, 0 a 1,1 0 1,0 2,0 a 1,1 0 1,0 -2,0 M 216 399.67 m -0.5, 0 a 0.5,0.5 0 1,0 1,0 a 0.5,0.5 0 1,0 -1,0  M204 405.67 Q 31.13 405.67, -141.75 115.77 T -487.5 -174.14 M -499.5 -174.14 m -1, 0 a 1,1 0 1,0 2,0 a 1,1 0 1,0 -2,0 M -499.5 -174.14 m -0.5, 0 a 0.5,0.5 0 1,0 1,0 a 0.5,0.5 0 1,0 -1,0  M-499.5 -174.14 L-499.5 -174.14 -487.5 -174.14 M -499.5 -168.14 m -1, 0 a 1,1 0 1,0 2,0 a 1,1 0 1,0 -2,0 M -499.5 -168.14 m -0.5, 0 a 0.5,0.5 0 1,0 1,0 a 0.5,0.5 0 1,0 -1,0  M-499.5 -168.14 L-499.5 -168.14 -492.5 -174.14 -499.5 -180.14 M -499.5 -180.14 m -1, 0 a 1,1 0 1,0 2,0 a 1,1 0 1,0 -2,0 M -499.5 -180.14 m -0.5, 0 a 0.5,0.5 0 1,0 1,0 a 0.5,0.5 0 1,0 -1,0 " id="h2114169720" class="r"></path><path d="M 216 430.67 m -1, 0 a 1,1 0 1,0 2,0 a 1,1 0 1,0 -2,0 M 216 430.67 m -0.5, 0 a 0.5,0.5 0 1,0 1,0 a 0.5,0.5 0 1,0 -1,0  M216 430.67 L216 430.67 204 430.67 M 216 436.67 m -1, 0 a 1,1 0 1,0 2,0 a 1,1 0 1,0 -2,0 M 216 436.67 m -0.5, 0 a 0.5,0.5 0 1,0 1,0 a 0.5,0.5 0 1,0 -1,0  M216 436.67 L216 436.67 209 430.67 216 424.67 M 216 424.67 m -1, 0 a 1,1 0 1,0 2,0 a 1,1 0 1,0 -2,0 M 216 424.67 m -0.5, 0 a 0.5,0.5 0 1,0 1,0 a 0.5,0.5 0 1,0 -1,0  M204 430.67 Q 31.13 430.67, -141.75 140.77 T -487.5 -149.14 M -499.5 -149.14 m -1, 0 a 1,1 0 1,0 2,0 a 1,1 0 1,0 -2,0 M -499.5 -149.14 m -0.5, 0 a 0.5,0.5 0 1,0 1,0 a 0.5,0.5 0 1,0 -1,0  M-499.5 -149.14 L-499.5 -149.14 -487.5 -149.14 M -499.5 -143.14 m -1, 0 a 1,1 0 1,0 2,0 a 1,1 0 1,0 -2,0 M -499.5 -143.14 m -0.5, 0 a 0.5,0.5 0 1,0 1,0 a 0.5,0.5 0 1,0 -1,0  M-499.5 -143.14 L-499.5 -143.14 -492.5 -149.14 -499.5 -155.14 M -499.5 -155.14 m -1, 0 a 1,1 0 1,0 2,0 a 1,1 0 1,0 -2,0 M -499.5 -155.14 m -0.5, 0 a 0.5,0.5 0 1,0 1,0 a 0.5,0.5 0 1,0 -1,0 " id="h15096239" class="r"></path><path d="M 216 580.6700000000001 m -1, 0 a 1,1 0 1,0 2,0 a 1,1 0 1,0 -2,0 M 216 580.6700000000001 m -0.5, 0 a 0.5,0.5 0 1,0 1,0 a 0.5,0.5 0 1,0 -1,0  M216 580.6700000000001 L216 580.6700000000001 204 580.6700000000001 M 216 586.6700000000001 m -1, 0 a 1,1 0 1,0 2,0 a 1,1 0 1,0 -2,0 M 216 586.6700000000001 m -0.5, 0 a 0.5,0.5 0 1,0 1,0 a 0.5,0.5 0 1,0 -1,0  M216 586.6700000000001 L216 586.6700000000001 209 580.6700000000001 216 574.6700000000001 M 216 574.6700000000001 m -1, 0 a 1,1 0 1,0 2,0 a 1,1 0 1,0 -2,0 M 216 574.6700000000001 m -0.5, 0 a 0.5,0.5 0 1,0 1,0 a 0.5,0.5 0 1,0 -1,0  M204 580.6700000000001 Q 31.13 580.6700000000001, -141.75 290.77 T -487.5 0.8600000000000136 M -499.5 0.8600000000000136 m -1, 0 a 1,1 0 1,0 2,0 a 1,1 0 1,0 -2,0 M -499.5 0.8600000000000136 m -0.5, 0 a 0.5,0.5 0 1,0 1,0 a 0.5,0.5 0 1,0 -1,0  M-499.5 0.8600000000000136 L-499.5 0.8600000000000136 -487.5 0.8600000000000136 M -499.5 6.860000000000014 m -1, 0 a 1,1 0 1,0 2,0 a 1,1 0 1,0 -2,0 M -499.5 6.860000000000014 m -0.5, 0 a 0.5,0.5 0 1,0 1,0 a 0.5,0.5 0 1,0 -1,0  M-499.5 6.860000000000014 L-499.5 6.860000000000014 -492.5 0.8600000000000136 -499.5 -5.139999999999986 M -499.5 -5.139999999999986 m -1, 0 a 1,1 0 1,0 2,0 a 1,1 0 1,0 -2,0 M -499.5 -5.139999999999986 m -0.5, 0 a 0.5,0.5 0 1,0 1,0 a 0.5,0.5 0 1,0 -1,0 " id="h608100799" class="r"></path><path d="M 377 -193.67 m -1, 0 a 1,1 0 1,0 2,0 a 1,1 0 1,0 -2,0 M 377 -193.67 m -0.5, 0 a 0.5,0.5 0 1,0 1,0 a 0.5,0.5 0 1,0 -1,0  M377 -193.67 L377 -193.67 365 -193.67 M 377 -187.67 m -1, 0 a 1,1 0 1,0 2,0 a 1,1 0 1,0 -2,0 M 377 -187.67 m -0.5, 0 a 0.5,0.5 0 1,0 1,0 a 0.5,0.5 0 1,0 -1,0  M377 -187.67 L377 -187.67 370 -193.67 377 -199.67 M 377 -199.67 m -1, 0 a 1,1 0 1,0 2,0 a 1,1 0 1,0 -2,0 M 377 -199.67 m -0.5, 0 a 0.5,0.5 0 1,0 1,0 a 0.5,0.5 0 1,0 -1,0  M365 -193.67 Q 151.88 -193.67, -61.25 -183.9 T -487.5 -174.14 M -499.5 -174.14 m -1, 0 a 1,1 0 1,0 2,0 a 1,1 0 1,0 -2,0 M -499.5 -174.14 m -0.5, 0 a 0.5,0.5 0 1,0 1,0 a 0.5,0.5 0 1,0 -1,0  M-499.5 -174.14 L-499.5 -174.14 -487.5 -174.14 M -499.5 -168.14 m -1, 0 a 1,1 0 1,0 2,0 a 1,1 0 1,0 -2,0 M -499.5 -168.14 m -0.5, 0 a 0.5,0.5 0 1,0 1,0 a 0.5,0.5 0 1,0 -1,0  M-499.5 -168.14 L-499.5 -168.14 -492.5 -174.14 -499.5 -180.14 M -499.5 -180.14 m -1, 0 a 1,1 0 1,0 2,0 a 1,1 0 1,0 -2,0 M -499.5 -180.14 m -0.5, 0 a 0.5,0.5 0 1,0 1,0 a 0.5,0.5 0 1,0 -1,0 " id="h4083558444" class="r"></path><path d="M 377 -168.67 m -1, 0 a 1,1 0 1,0 2,0 a 1,1 0 1,0 -2,0 M 377 -168.67 m -0.5, 0 a 0.5,0.5 0 1,0 1,0 a 0.5,0.5 0 1,0 -1,0  M377 -168.67 L377 -168.67 365 -168.67 M 377 -162.67 m -1, 0 a 1,1 0 1,0 2,0 a 1,1 0 1,0 -2,0 M 377 -162.67 m -0.5, 0 a 0.5,0.5 0 1,0 1,0 a 0.5,0.5 0 1,0 -1,0  M377 -162.67 L377 -162.67 370 -168.67 377 -174.67 M 377 -174.67 m -1, 0 a 1,1 0 1,0 2,0 a 1,1 0 1,0 -2,0 M 377 -174.67 m -0.5, 0 a 0.5,0.5 0 1,0 1,0 a 0.5,0.5 0 1,0 -1,0  M365 -168.67 Q 151.88 -168.67, -61.25 -158.9 T -487.5 -149.14 M -499.5 -149.14 m -1, 0 a 1,1 0 1,0 2,0 a 1,1 0 1,0 -2,0 M -499.5 -149.14 m -0.5, 0 a 0.5,0.5 0 1,0 1,0 a 0.5,0.5 0 1,0 -1,0  M-499.5 -149.14 L-499.5 -149.14 -487.5 -149.14 M -499.5 -143.14 m -1, 0 a 1,1 0 1,0 2,0 a 1,1 0 1,0 -2,0 M -499.5 -143.14 m -0.5, 0 a 0.5,0.5 0 1,0 1,0 a 0.5,0.5 0 1,0 -1,0  M-499.5 -143.14 L-499.5 -143.14 -492.5 -149.14 -499.5 -155.14 M -499.5 -155.14 m -1, 0 a 1,1 0 1,0 2,0 a 1,1 0 1,0 -2,0 M -499.5 -155.14 m -0.5, 0 a 0.5,0.5 0 1,0 1,0 a 0.5,0.5 0 1,0 -1,0 " id="h253769086" class="r"></path><path d="M 377 -143.67 m -1, 0 a 1,1 0 1,0 2,0 a 1,1 0 1,0 -2,0 M 377 -143.67 m -0.5, 0 a 0.5,0.5 0 1,0 1,0 a 0.5,0.5 0 1,0 -1,0  M377 -143.67 L377 -143.67 365 -143.67 M 377 -137.67 m -1, 0 a 1,1 0 1,0 2,0 a 1,1 0 1,0 -2,0 M 377 -137.67 m -0.5, 0 a 0.5,0.5 0 1,0 1,0 a 0.5,0.5 0 1,0 -1,0  M377 -137.67 L377 -137.67 370 -143.67 377 -149.67 M 377 -149.67 m -1, 0 a 1,1 0 1,0 2,0 a 1,1 0 1,0 -2,0 M 377 -149.67 m -0.5, 0 a 0.5,0.5 0 1,0 1,0 a 0.5,0.5 0 1,0 -1,0  M365 -143.67 Q 151.88 -143.67, -61.25 -71.4 T -487.5 0.8600000000000136 M -499.5 0.8600000000000136 m -1, 0 a 1,1 0 1,0 2,0 a 1,1 0 1,0 -2,0 M -499.5 0.8600000000000136 m -0.5, 0 a 0.5,0.5 0 1,0 1,0 a 0.5,0.5 0 1,0 -1,0  M-499.5 0.8600000000000136 L-499.5 0.8600000000000136 -487.5 0.8600000000000136 M -499.5 6.860000000000014 m -1, 0 a 1,1 0 1,0 2,0 a 1,1 0 1,0 -2,0 M -499.5 6.860000000000014 m -0.5, 0 a 0.5,0.5 0 1,0 1,0 a 0.5,0.5 0 1,0 -1,0  M-499.5 6.860000000000014 L-499.5 6.860000000000014 -492.5 0.8600000000000136 -499.5 -5.139999999999986 M -499.5 -5.139999999999986 m -1, 0 a 1,1 0 1,0 2,0 a 1,1 0 1,0 -2,0 M -499.5 -5.139999999999986 m -0.5, 0 a 0.5,0.5 0 1,0 1,0 a 0.5,0.5 0 1,0 -1,0 " id="h1955369159" class="r"></path><path d="M 377 -118.66999999999999 m -1, 0 a 1,1 0 1,0 2,0 a 1,1 0 1,0 -2,0 M 377 -118.66999999999999 m -0.5, 0 a 0.5,0.5 0 1,0 1,0 a 0.5,0.5 0 1,0 -1,0  M377 -118.66999999999999 L377 -118.66999999999999 365 -118.66999999999999 M 377 -112.66999999999999 m -1, 0 a 1,1 0 1,0 2,0 a 1,1 0 1,0 -2,0 M 377 -112.66999999999999 m -0.5, 0 a 0.5,0.5 0 1,0 1,0 a 0.5,0.5 0 1,0 -1,0  M377 -112.66999999999999 L377 -112.66999999999999 370 -118.66999999999999 377 -124.66999999999999 M 377 -124.66999999999999 m -1, 0 a 1,1 0 1,0 2,0 a 1,1 0 1,0 -2,0 M 377 -124.66999999999999 m -0.5, 0 a 0.5,0.5 0 1,0 1,0 a 0.5,0.5 0 1,0 -1,0  M365 -118.66999999999999 Q 151.88 -118.66999999999999, -61.25 -33.9 T -487.5 50.860000000000014 M -499.5 50.860000000000014 m -1, 0 a 1,1 0 1,0 2,0 a 1,1 0 1,0 -2,0 M -499.5 50.860000000000014 m -0.5, 0 a 0.5,0.5 0 1,0 1,0 a 0.5,0.5 0 1,0 -1,0  M-499.5 50.860000000000014 L-499.5 50.860000000000014 -487.5 50.860000000000014 M -499.5 56.860000000000014 m -1, 0 a 1,1 0 1,0 2,0 a 1,1 0 1,0 -2,0 M -499.5 56.860000000000014 m -0.5, 0 a 0.5,0.5 0 1,0 1,0 a 0.5,0.5 0 1,0 -1,0  M-499.5 56.860000000000014 L-499.5 56.860000000000014 -492.5 50.860000000000014 -499.5 44.860000000000014 M -499.5 44.860000000000014 m -1, 0 a 1,1 0 1,0 2,0 a 1,1 0 1,0 -2,0 M -499.5 44.860000000000014 m -0.5, 0 a 0.5,0.5 0 1,0 1,0 a 0.5,0.5 0 1,0 -1,0 " id="h3430042292" class="r"></path><path d="M 545.42 -93.66999999999999 m -1, 0 a 1,1 0 1,0 2,0 a 1,1 0 1,0 -2,0 M 545.42 -93.66999999999999 m -0.5, 0 a 0.5,0.5 0 1,0 1,0 a 0.5,0.5 0 1,0 -1,0  M545.42 -93.66999999999999 L545.42 -93.66999999999999 557.42 -93.66999999999999 M 545.42 -87.66999999999999 m -1, 0 a 1,1 0 1,0 2,0 a 1,1 0 1,0 -2,0 M 545.42 -87.66999999999999 m -0.5, 0 a 0.5,0.5 0 1,0 1,0 a 0.5,0.5 0 1,0 -1,0  M545.42 -87.66999999999999 L545.42 -87.66999999999999 552.42 -93.66999999999999 545.42 -99.66999999999999 M 545.42 -99.66999999999999 m -1, 0 a 1,1 0 1,0 2,0 a 1,1 0 1,0 -2,0 M 545.42 -99.66999999999999 m -0.5, 0 a 0.5,0.5 0 1,0 1,0 a 0.5,0.5 0 1,0 -1,0  M557.42 -93.66999999999999 C 607.42 -93.66999999999999, 696.376 630.6700000000001, 409.16 630.6700000000001 M 397.16 630.6700000000001 m -1, 0 a 1,1 0 1,0 2,0 a 1,1 0 1,0 -2,0 M 397.16 630.6700000000001 m -0.5, 0 a 0.5,0.5 0 1,0 1,0 a 0.5,0.5 0 1,0 -1,0  M397.16 630.6700000000001 L397.16 630.6700000000001 409.16 630.6700000000001 M 397.16 636.6700000000001 m -1, 0 a 1,1 0 1,0 2,0 a 1,1 0 1,0 -2,0 M 397.16 636.6700000000001 m -0.5, 0 a 0.5,0.5 0 1,0 1,0 a 0.5,0.5 0 1,0 -1,0  M397.16 636.6700000000001 L397.16 636.6700000000001 404.16 630.6700000000001 397.16 624.6700000000001 M 397.16 624.6700000000001 m -1, 0 a 1,1 0 1,0 2,0 a 1,1 0 1,0 -2,0 M 397.16 624.6700000000001 m -0.5, 0 a 0.5,0.5 0 1,0 1,0 a 0.5,0.5 0 1,0 -1,0 " id="h1129321132" class="r"></path><path d="M 377 -68.66999999999999 m -1, 0 a 1,1 0 1,0 2,0 a 1,1 0 1,0 -2,0 M 377 -68.66999999999999 m -0.5, 0 a 0.5,0.5 0 1,0 1,0 a 0.5,0.5 0 1,0 -1,0  M377 -68.66999999999999 L377 -68.66999999999999 365 -68.66999999999999 M 377 -62.66999999999999 m -1, 0 a 1,1 0 1,0 2,0 a 1,1 0 1,0 -2,0 M 377 -62.66999999999999 m -0.5, 0 a 0.5,0.5 0 1,0 1,0 a 0.5,0.5 0 1,0 -1,0  M377 -62.66999999999999 L377 -62.66999999999999 370 -68.66999999999999 377 -74.66999999999999 M 377 -74.66999999999999 m -1, 0 a 1,1 0 1,0 2,0 a 1,1 0 1,0 -2,0 M 377 -74.66999999999999 m -0.5, 0 a 0.5,0.5 0 1,0 1,0 a 0.5,0.5 0 1,0 -1,0  M365 -68.66999999999999 Q 291.72 -68.66999999999999, 218.44 -200.43 T 71.88 -332.19000000000005 M 59.88 -332.19000000000005 m -1, 0 a 1,1 0 1,0 2,0 a 1,1 0 1,0 -2,0 M 59.88 -332.19000000000005 m -0.5, 0 a 0.5,0.5 0 1,0 1,0 a 0.5,0.5 0 1,0 -1,0  M59.88 -332.19000000000005 L59.88 -332.19000000000005 71.88 -332.19000000000005 M 59.88 -326.19000000000005 m -1, 0 a 1,1 0 1,0 2,0 a 1,1 0 1,0 -2,0 M 59.88 -326.19000000000005 m -0.5, 0 a 0.5,0.5 0 1,0 1,0 a 0.5,0.5 0 1,0 -1,0  M59.88 -326.19000000000005 L59.88 -326.19000000000005 66.88 -332.19000000000005 59.88 -338.19000000000005 M 59.88 -338.19000000000005 m -1, 0 a 1,1 0 1,0 2,0 a 1,1 0 1,0 -2,0 M 59.88 -338.19000000000005 m -0.5, 0 a 0.5,0.5 0 1,0 1,0 a 0.5,0.5 0 1,0 -1,0 " id="h1271989529" class="r"></path><path d="M 377 -43.66999999999999 m -1, 0 a 1,1 0 1,0 2,0 a 1,1 0 1,0 -2,0 M 377 -43.66999999999999 m -0.5, 0 a 0.5,0.5 0 1,0 1,0 a 0.5,0.5 0 1,0 -1,0  M377 -43.66999999999999 L377 -43.66999999999999 365 -43.66999999999999 M 377 -37.66999999999999 m -1, 0 a 1,1 0 1,0 2,0 a 1,1 0 1,0 -2,0 M 377 -37.66999999999999 m -0.5, 0 a 0.5,0.5 0 1,0 1,0 a 0.5,0.5 0 1,0 -1,0  M377 -37.66999999999999 L377 -37.66999999999999 370 -43.66999999999999 377 -49.66999999999999 M 377 -49.66999999999999 m -1, 0 a 1,1 0 1,0 2,0 a 1,1 0 1,0 -2,0 M 377 -49.66999999999999 m -0.5, 0 a 0.5,0.5 0 1,0 1,0 a 0.5,0.5 0 1,0 -1,0  M365 -43.66999999999999 Q 291.72 -43.66999999999999, 218.44 -187.93 T 71.88 -332.19000000000005 M 59.88 -332.19000000000005 m -1, 0 a 1,1 0 1,0 2,0 a 1,1 0 1,0 -2,0 M 59.88 -332.19000000000005 m -0.5, 0 a 0.5,0.5 0 1,0 1,0 a 0.5,0.5 0 1,0 -1,0  M59.88 -332.19000000000005 L59.88 -332.19000000000005 71.88 -332.19000000000005 M 59.88 -326.19000000000005 m -1, 0 a 1,1 0 1,0 2,0 a 1,1 0 1,0 -2,0 M 59.88 -326.19000000000005 m -0.5, 0 a 0.5,0.5 0 1,0 1,0 a 0.5,0.5 0 1,0 -1,0  M59.88 -326.19000000000005 L59.88 -326.19000000000005 66.88 -332.19000000000005 59.88 -338.19000000000005 M 59.88 -338.19000000000005 m -1, 0 a 1,1 0 1,0 2,0 a 1,1 0 1,0 -2,0 M 59.88 -338.19000000000005 m -0.5, 0 a 0.5,0.5 0 1,0 1,0 a 0.5,0.5 0 1,0 -1,0 " id="h1834434312" class="r"></path><path d="M 377 -18.669999999999987 m -1, 0 a 1,1 0 1,0 2,0 a 1,1 0 1,0 -2,0 M 377 -18.669999999999987 m -0.5, 0 a 0.5,0.5 0 1,0 1,0 a 0.5,0.5 0 1,0 -1,0  M377 -18.669999999999987 L377 -18.669999999999987 365 -18.669999999999987 M 377 -12.669999999999987 m -1, 0 a 1,1 0 1,0 2,0 a 1,1 0 1,0 -2,0 M 377 -12.669999999999987 m -0.5, 0 a 0.5,0.5 0 1,0 1,0 a 0.5,0.5 0 1,0 -1,0  M377 -12.669999999999987 L377 -12.669999999999987 370 -18.669999999999987 377 -24.669999999999987 M 377 -24.669999999999987 m -1, 0 a 1,1 0 1,0 2,0 a 1,1 0 1,0 -2,0 M 377 -24.669999999999987 m -0.5, 0 a 0.5,0.5 0 1,0 1,0 a 0.5,0.5 0 1,0 -1,0  M365 -18.669999999999987 Q 291.72 -18.669999999999987, 218.44 -175.43 T 71.88 -332.19000000000005 M 59.88 -332.19000000000005 m -1, 0 a 1,1 0 1,0 2,0 a 1,1 0 1,0 -2,0 M 59.88 -332.19000000000005 m -0.5, 0 a 0.5,0.5 0 1,0 1,0 a 0.5,0.5 0 1,0 -1,0  M59.88 -332.19000000000005 L59.88 -332.19000000000005 71.88 -332.19000000000005 M 59.88 -326.19000000000005 m -1, 0 a 1,1 0 1,0 2,0 a 1,1 0 1,0 -2,0 M 59.88 -326.19000000000005 m -0.5, 0 a 0.5,0.5 0 1,0 1,0 a 0.5,0.5 0 1,0 -1,0  M59.88 -326.19000000000005 L59.88 -326.19000000000005 66.88 -332.19000000000005 59.88 -338.19000000000005 M 59.88 -338.19000000000005 m -1, 0 a 1,1 0 1,0 2,0 a 1,1 0 1,0 -2,0 M 59.88 -338.19000000000005 m -0.5, 0 a 0.5,0.5 0 1,0 1,0 a 0.5,0.5 0 1,0 -1,0 " id="h2926094292" class="r"></path><path d="M 377 6.3300000000000125 m -1, 0 a 1,1 0 1,0 2,0 a 1,1 0 1,0 -2,0 M 377 6.3300000000000125 m -0.5, 0 a 0.5,0.5 0 1,0 1,0 a 0.5,0.5 0 1,0 -1,0  M377 6.3300000000000125 L377 6.3300000000000125 365 6.3300000000000125 M 377 12.330000000000013 m -1, 0 a 1,1 0 1,0 2,0 a 1,1 0 1,0 -2,0 M 377 12.330000000000013 m -0.5, 0 a 0.5,0.5 0 1,0 1,0 a 0.5,0.5 0 1,0 -1,0  M377 12.330000000000013 L377 12.330000000000013 370 6.3300000000000125 377 0.3300000000000125 M 377 0.3300000000000125 m -1, 0 a 1,1 0 1,0 2,0 a 1,1 0 1,0 -2,0 M 377 0.3300000000000125 m -0.5, 0 a 0.5,0.5 0 1,0 1,0 a 0.5,0.5 0 1,0 -1,0  M365 6.3300000000000125 Q 189.85 6.3300000000000125, 14.7 313.93 T -335.6 621.52 M -347.6 621.52 m -1, 0 a 1,1 0 1,0 2,0 a 1,1 0 1,0 -2,0 M -347.6 621.52 m -0.5, 0 a 0.5,0.5 0 1,0 1,0 a 0.5,0.5 0 1,0 -1,0  M-347.6 621.52 L-347.6 621.52 -335.6 621.52 M -347.6 627.52 m -1, 0 a 1,1 0 1,0 2,0 a 1,1 0 1,0 -2,0 M -347.6 627.52 m -0.5, 0 a 0.5,0.5 0 1,0 1,0 a 0.5,0.5 0 1,0 -1,0  M-347.6 627.52 L-347.6 627.52 -340.6 621.52 -347.6 615.52 M -347.6 615.52 m -1, 0 a 1,1 0 1,0 2,0 a 1,1 0 1,0 -2,0 M -347.6 615.52 m -0.5, 0 a 0.5,0.5 0 1,0 1,0 a 0.5,0.5 0 1,0 -1,0 " id="h1526926783" class="r"></path><path d="M 377 31.330000000000013 m -1, 0 a 1,1 0 1,0 2,0 a 1,1 0 1,0 -2,0 M 377 31.330000000000013 m -0.5, 0 a 0.5,0.5 0 1,0 1,0 a 0.5,0.5 0 1,0 -1,0  M377 31.330000000000013 L377 31.330000000000013 365 31.330000000000013 M 377 37.33000000000001 m -1, 0 a 1,1 0 1,0 2,0 a 1,1 0 1,0 -2,0 M 377 37.33000000000001 m -0.5, 0 a 0.5,0.5 0 1,0 1,0 a 0.5,0.5 0 1,0 -1,0  M377 37.33000000000001 L377 37.33000000000001 370 31.330000000000013 377 25.330000000000013 M 377 25.330000000000013 m -1, 0 a 1,1 0 1,0 2,0 a 1,1 0 1,0 -2,0 M 377 25.330000000000013 m -0.5, 0 a 0.5,0.5 0 1,0 1,0 a 0.5,0.5 0 1,0 -1,0  M365 31.330000000000013 Q 189.85 31.330000000000013, 14.7 326.43 T -335.6 621.52 M -347.6 621.52 m -1, 0 a 1,1 0 1,0 2,0 a 1,1 0 1,0 -2,0 M -347.6 621.52 m -0.5, 0 a 0.5,0.5 0 1,0 1,0 a 0.5,0.5 0 1,0 -1,0  M-347.6 621.52 L-347.6 621.52 -335.6 621.52 M -347.6 627.52 m -1, 0 a 1,1 0 1,0 2,0 a 1,1 0 1,0 -2,0 M -347.6 627.52 m -0.5, 0 a 0.5,0.5 0 1,0 1,0 a 0.5,0.5 0 1,0 -1,0  M-347.6 627.52 L-347.6 627.52 -340.6 621.52 -347.6 615.52 M -347.6 615.52 m -1, 0 a 1,1 0 1,0 2,0 a 1,1 0 1,0 -2,0 M -347.6 615.52 m -0.5, 0 a 0.5,0.5 0 1,0 1,0 a 0.5,0.5 0 1,0 -1,0 " id="h884081409" class="r"></path><path d="M 377 56.33000000000001 m -1, 0 a 1,1 0 1,0 2,0 a 1,1 0 1,0 -2,0 M 377 56.33000000000001 m -0.5, 0 a 0.5,0.5 0 1,0 1,0 a 0.5,0.5 0 1,0 -1,0  M377 56.33000000000001 L377 56.33000000000001 365 56.33000000000001 M 377 62.33000000000001 m -1, 0 a 1,1 0 1,0 2,0 a 1,1 0 1,0 -2,0 M 377 62.33000000000001 m -0.5, 0 a 0.5,0.5 0 1,0 1,0 a 0.5,0.5 0 1,0 -1,0  M377 62.33000000000001 L377 62.33000000000001 370 56.33000000000001 377 50.33000000000001 M 377 50.33000000000001 m -1, 0 a 1,1 0 1,0 2,0 a 1,1 0 1,0 -2,0 M 377 50.33000000000001 m -0.5, 0 a 0.5,0.5 0 1,0 1,0 a 0.5,0.5 0 1,0 -1,0  M365 56.33000000000001 Q 189.85 56.33000000000001, 14.7 338.93 T -335.6 621.52 M -347.6 621.52 m -1, 0 a 1,1 0 1,0 2,0 a 1,1 0 1,0 -2,0 M -347.6 621.52 m -0.5, 0 a 0.5,0.5 0 1,0 1,0 a 0.5,0.5 0 1,0 -1,0  M-347.6 621.52 L-347.6 621.52 -335.6 621.52 M -347.6 627.52 m -1, 0 a 1,1 0 1,0 2,0 a 1,1 0 1,0 -2,0 M -347.6 627.52 m -0.5, 0 a 0.5,0.5 0 1,0 1,0 a 0.5,0.5 0 1,0 -1,0  M-347.6 627.52 L-347.6 627.52 -340.6 621.52 -347.6 615.52 M -347.6 615.52 m -1, 0 a 1,1 0 1,0 2,0 a 1,1 0 1,0 -2,0 M -347.6 615.52 m -0.5, 0 a 0.5,0.5 0 1,0 1,0 a 0.5,0.5 0 1,0 -1,0 " id="h3677403449" class="r"></path></g><g class="hrs"></g><g class="ts"><svg width="181.16" height="375" x="-680.66" y="-231.14" id="h2916973867" class="t"><rect height="40" width="181.16" class="th"></rect><text x="13" y="25" class="tht">population_all</text><rect height="335" width="181.16" class="t-bg"></rect><text x="13" y="61" class="tf fk">area_code<tspan x="168.16" class="ty">INT</tspan></text><text x="13" y="86" class="tf fk">area<tspan x="168.16" class="ty">VARCHAR(255)</tspan></text><text x="13" y="111" class="tf">item_code<tspan x="168.16" class="ty">INT</tspan></text><text x="13" y="136" class="tf">item<tspan x="168.16" class="ty">VARCHAR(255)</tspan></text><text x="13" y="161" class="tf">element_code<tspan x="168.16" class="ty">INT</tspan></text><text x="13" y="186" class="tf">element<tspan x="168.16" class="ty">VARCHAR(1023)</tspan></text><text x="13" y="211" class="tf">year_code<tspan x="168.16" class="ty">INT</tspan></text><text x="13" y="236" class="tf fk">year<tspan x="168.16" class="ty">INT</tspan></text><text x="13" y="261" class="tf">unit<tspan x="168.16" class="ty">VARCHAR(255)</tspan></text><text x="13" y="286" class="tf fk">value<tspan x="168.16" class="ty">FLOAT(24)</tspan></text><text x="13" y="311" class="tf">flag<tspan x="168.16" class="ty">VARCHAR(255)</tspan></text><text x="13" y="336" class="tf">note<tspan x="168.16" class="ty">VARCHAR(255)</tspan></text><text x="13" y="361" class="tf">...</text></svg><svg width="195.64" height="375" x="-135.76" y="-614.19" id="h2835326734" class="t"><rect height="40" width="195.64" class="th"></rect><text x="13" y="25" class="tht">emissions_agriculture_total</text><rect height="335" width="195.64" class="t-bg"></rect><text x="13" y="61" class="tf fk">area_code<tspan x="182.64" class="ty">INT</tspan></text><text x="13" y="86" class="tf fk">area<tspan x="182.64" class="ty">VARCHAR(255)</tspan></text><text x="13" y="111" class="tf">item_code<tspan x="182.64" class="ty">INT</tspan></text><text x="13" y="136" class="tf">item<tspan x="182.64" class="ty">VARCHAR(255)</tspan></text><text x="13" y="161" class="tf">element_code<tspan x="182.64" class="ty">INT</tspan></text><text x="13" y="186" class="tf">element<tspan x="182.64" class="ty">VARCHAR(1023)</tspan></text><text x="13" y="211" class="tf">year_code<tspan x="182.64" class="ty">INT</tspan></text><text x="13" y="236" class="tf fk">year<tspan x="182.64" class="ty">INT</tspan></text><text x="13" y="261" class="tf">unit<tspan x="182.64" class="ty">VARCHAR(255)</tspan></text><text x="13" y="286" class="tf fk">value<tspan x="182.64" class="ty">FLOAT(24)</tspan></text><text x="13" y="311" class="tf">flag<tspan x="182.64" class="ty">VARCHAR(255)</tspan></text><text x="13" y="336" class="tf">note<tspan x="182.64" class="ty">VARCHAR(255)</tspan></text><text x="13" y="361" class="tf">...</text></svg><svg width="181.16" height="350" x="-528.76" y="339.52" id="h2306413496" class="t"><rect height="40" width="181.16" class="th"></rect><text x="13" y="25" class="tht">production_crop</text><rect height="310" width="181.16" class="t-bg"></rect><text x="13" y="61" class="tf fk">area_code<tspan x="168.16" class="ty">INT</tspan></text><text x="13" y="86" class="tf fk">area<tspan x="168.16" class="ty">VARCHAR(255)</tspan></text><text x="13" y="111" class="tf">item_code<tspan x="168.16" class="ty">INT</tspan></text><text x="13" y="136" class="tf">item<tspan x="168.16" class="ty">VARCHAR(255)</tspan></text><text x="13" y="161" class="tf">element_code<tspan x="168.16" class="ty">INT</tspan></text><text x="13" y="186" class="tf">element<tspan x="168.16" class="ty">VARCHAR(1023)</tspan></text><text x="13" y="211" class="tf">year_code<tspan x="168.16" class="ty">INT</tspan></text><text x="13" y="236" class="tf fk">year<tspan x="168.16" class="ty">INT</tspan></text><text x="13" y="261" class="tf">unit<tspan x="168.16" class="ty">VARCHAR(255)</tspan></text><text x="13" y="286" class="tf fk">value<tspan x="168.16" class="ty">FLOAT(24)</tspan></text><text x="13" y="311" class="tf">flag<tspan x="168.16" class="ty">VARCHAR(255)</tspan></text><text x="13" y="336" class="tf">...</text></svg><svg width="181.16" height="350" x="216" y="348.67" id="h2583918925" class="t"><rect height="40" width="181.16" class="th"></rect><text x="13" y="25" class="tht">emissions_land_total</text><rect height="310" width="181.16" class="t-bg"></rect><text x="13" y="61" class="tf fk">area_code<tspan x="168.16" class="ty">INT</tspan></text><text x="13" y="86" class="tf fk">area<tspan x="168.16" class="ty">VARCHAR(255)</tspan></text><text x="13" y="111" class="tf">item_code<tspan x="168.16" class="ty">INT</tspan></text><text x="13" y="136" class="tf">item<tspan x="168.16" class="ty">VARCHAR(255)</tspan></text><text x="13" y="161" class="tf">element_code<tspan x="168.16" class="ty">INT</tspan></text><text x="13" y="186" class="tf">element<tspan x="168.16" class="ty">VARCHAR(1023)</tspan></text><text x="13" y="211" class="tf">year_code<tspan x="168.16" class="ty">INT</tspan></text><text x="13" y="236" class="tf fk">year<tspan x="168.16" class="ty">INT</tspan></text><text x="13" y="261" class="tf">unit<tspan x="168.16" class="ty">VARCHAR(255)</tspan></text><text x="13" y="286" class="tf fk">value<tspan x="168.16" class="ty">FLOAT(24)</tspan></text><text x="13" y="311" class="tf">flag<tspan x="168.16" class="ty">VARCHAR(255)</tspan></text><text x="13" y="336" class="tf">...</text></svg><svg width="168.42" height="350" x="377" y="-250.67" id="h3270694446" class="t"><rect height="40" width="168.42" class="th"></rect><text x="13" y="25" class="tht">complete_merge_table</text><rect height="310" width="168.42" class="t-bg"></rect><text x="13" y="61" class="tf fk">area_code<tspan x="155.42" class="ty">INT</tspan></text><text x="13" y="86" class="tf fk">area<tspan x="155.42" class="ty">VARCHAR(255)</tspan></text><text x="13" y="111" class="tf fk">year<tspan x="155.42" class="ty">INT</tspan></text><text x="13" y="136" class="tf fk">population<tspan x="155.42" class="ty">FLOAT(24)</tspan></text><text x="13" y="161" class="tf fk">land_co2<tspan x="155.42" class="ty">FLOAT(24)</tspan></text><text x="13" y="186" class="tf fk">agri_ch4<tspan x="155.42" class="ty">FLOAT(24)</tspan></text><text x="13" y="211" class="tf fk">agri_n2o<tspan x="155.42" class="ty">FLOAT(24)</tspan></text><text x="13" y="236" class="tf fk">agri_co2<tspan x="155.42" class="ty">FLOAT(24)</tspan></text><text x="13" y="261" class="tf fk">production<tspan x="155.42" class="ty">FLOAT(24)</tspan></text><text x="13" y="286" class="tf fk">harvest<tspan x="155.42" class="ty">FLOAT(24)</tspan></text><text x="13" y="311" class="tf fk">yield<tspan x="155.42" class="ty">FLOAT(24)</tspan></text><text x="13" y="336" class="tf">...</text></svg></g></g><text class="qdbd-link" x="10" y="20">www.quickdatabasediagrams.com</text></svg>